<svg xmlns="http://www.w3.org/2000/svg" viewBox="0 0 256 256" width="256" height="256">
  <rect width="256" height="256" rx="56" fill="#0064ff"/>
  <g transform="translate(48,45) scale(1.6)">
    <path d="M12,84 C6,42 22,8 50,8 C78,8 94,42 88,84 C86,95 80,95 77,87 C74,80 67,80 64,88 C61,96 54,96 51,88 C48,80 41,80 38,88 C35,96 28,96 25,87 C22,80 15,93 12,84 Z" fill="#ffffff"/>
    <ellipse cx="39" cy="50" rx="9.5" ry="12" fill="#0064ff"/>
    <circle cx="66" cy="52" r="7" fill="#0064ff"/>
    <circle cx="42" cy="45" r="3" fill="#ffffff"/>
  </g>
</svg>
